<?xml version="1.0" encoding="UTF-8" standalone="no"?>
<!-- Created with Inkscape (http://www.inkscape.org/) -->

<svg
   width="30.816214mm"
   height="30.816208mm"
   viewBox="0 0 30.816214 30.816208"
   version="1.1"
   id="svg1"
   xml:space="preserve"
   xmlns="http://www.w3.org/2000/svg"
   xmlns:svg="http://www.w3.org/2000/svg"><defs
     id="defs1" /><g
     id="layer1"
     transform="translate(-68.34958,-111.414)"><rect
       style="fill:#eeeeee;fill-opacity:1;stroke:none;stroke-width:0.389557;stroke-dasharray:none;stroke-opacity:1"
       id="rect4"
       width="30.816214"
       height="30.816214"
       x="68.349586"
       y="111.414" /><path
       style="fill:#000000;stroke:#000000;stroke-width:0.471;stroke-dasharray:none"
       d="M 70.428367,119.16405 H 83.788814"
       id="path5" /><path
       style="fill:#000000;stroke:#000000;stroke-width:0.471;stroke-dasharray:none"
       d="M 70.428367,134.4927 H 83.788814"
       id="path5-3" /><path
       style="fill:#000000;fill-opacity:1;stroke:none;stroke-width:0.665001;stroke-dasharray:none;stroke-opacity:0.126183"
       d="M 0.72501983,79.341969 C -0.49152749,78.855922 -4.5011,78.910308 -4.5515833,82.622191 c -5.337e-4,0.03924 -5.276e-4,0.102893 -5.71e-5,0.142161 0.044471,3.711007 3.575763,3.700409 5.27666023,3.291401 0.001541,-0.796844 0.0158231,-0.06784 0.009184,-0.795661 -0.73360124616,-0.0038 -4.27745913,0.798263 -4.25775613,-2.566844 0.019703,-3.365107 4.22838797,-2.67042 4.22838797,-2.67042 0,0 0.0417104,-0.155374 0.0201842,-0.680859 z"
       id="path6"
       transform="translate(79.016608,44.102583)" /><rect
       style="fill:#ef2e24;fill-opacity:1;stroke:none;stroke-width:0.466237;stroke-dasharray:none;stroke-opacity:0.126183"
       id="rect7"
       width="11.051318"
       height="28.65457"
       x="83.747597"
       y="112.49483" /><rect
       style="fill:#090909;fill-opacity:1;stroke-width:0.453566;stroke-opacity:0.126183"
       id="rect3"
       width="13.387825"
       height="15.785598"
       x="83.699203"
       y="118.92931" /><path
       id="path1"
       style="fill:#ffffff;fill-opacity:1;stroke-width:0.665001;stroke-opacity:0.126183"
       d="m 91.200815,123.05827 c -0.888068,-0.0107 -1.714519,0.30137 -1.846915,0.35967 -0.302621,0.13326 -1.039706,0.64492 -1.039706,0.64492 v -0.86765 h -1.114168 v 10.5823 h 1.114168 v -3.10713 c 0,0 1.833019,-0.13153 2.347106,-0.30563 0.514086,-0.17405 2.924899,-0.33779 2.924899,-4.43846 0,-2.30662 -1.243581,-2.85423 -2.385384,-2.86804 z m 0.09306,1.02873 c 0.920159,0.0195 1.257339,0.64986 1.308215,2.14987 0.121947,3.69616 -3.25112,3.4223 -4.287896,3.41548 -0.01295,-1.69584 0,-3.7114 0,-3.7114 0.557745,-1.66734 2.059523,-1.87342 2.979681,-1.85395 z" /></g></svg>
