<?xml version="1.0" encoding="UTF-8"?>
<svg width="52px" height="24px" viewBox="0 0 52 24" version="1.1" xmlns="http://www.w3.org/2000/svg" xmlns:xlink="http://www.w3.org/1999/xlink">
    <!-- Generator: Sketch 54.1 (76490) - https://sketchapp.com -->
    <title>logos/nij</title>
    <desc>Created with Sketch.</desc>
    <defs>
        <polygon id="path-1" points="0.0276106195 0.259846154 51.5724956 0.259846154 51.5724956 23.5772308 0.0276106195 23.5772308"></polygon>
    </defs>
    <g id="logos/nij" stroke="none" stroke-width="1" fill="none" fill-rule="evenodd">
        <g id="NIJ_Logo_2014_Print_2-Color">
            <g id="Group-4">
                <mask id="mask-2" fill="white">
                    <use xlink:href="#path-1"></use>
                </mask>
                <g id="Clip-2"></g>
                <polyline id="Fill-3" fill="#1C1B19" mask="url(#mask-2)" points="4.86361062 0.410307692 10.6024779 0.410307692 15.4334159 17.646 15.4983009 17.646 19.1944425 0.410307692 23.4745487 0.410307692 18.5782655 23.1092308 12.7423009 23.1092308 8.00846018 5.71107692 7.94357522 5.71107692 4.34499115 23.1092308 0 23.1092308 4.86361062 0.410307692"></polyline>
            </g>
            <polyline id="Fill-5" fill="#1C1B19" points="27.5152587 0 32 0 27.4847413 24 23 24 27.5152587 0"></polyline>
            <path d="M45,0 L41.6966991,16.0228677 C40.786318,20.7545525 39.2698134,24 33.9438686,24 C32.6292457,24 31.2811354,23.8647131 30,23.5269754 L31.0787753,19.5038679 C31.6518897,19.7072781 32.3933982,19.8756671 33.2363259,19.8756671 C35.730665,19.8756671 36.5396269,18.0507326 36.9778345,15.8875807 L40.280657,0 L45,0" id="Fill-6" fill="#1C1B19"></path>
        </g>
    </g>
</svg>